# xmcd CD database file
#
# Track frame offsets:
#	150
#	18865
#	30694
#	45325
#	59948
#	72433
#	84814
#	103385
#	113781
#	131551
#	141653
#	153692
#	167167
#	179282
#	188366
#	200491
#	214914
#	227209
#
# Disc length: 3181 seconds
#
# Revision: 1
# Processed by: cddbd v1.5.2PL0 Copyright (c) Steve Scherf et al.
# Submitted via: CDex 1.70beta2
#
DISCID=080c6b12
DTITLE=Various Artist - The Very Best Of Country [CD2]
DYEAR=2004
DGENRE=Country
TTITLE0=The King Of Oak Street
TTITLE1=Walkin After Midnight
TTITLE2=Freightliner Fever
TTITLE3=Folsom Prison Blues
TTITLE4=By the Time I Got to Phonix
TTITLE5=Wasted Days and Wasted Nights
TTITLE6=I Believe in Music
TTITLE7=Lorena
TTITLE8=Southern Nights
TTITLE9=Take My Hand for a While
TTITLE10=Before the Next Teardrops Falls
TTITLE11=Almost Persuaded
TTITLE12=Jezebel
TTITLE13=It's a long Long Ride
TTITLE14=I'm Casting My Lasso Towards the Sky
TTITLE15=The Galveston Rose
TTITLE16=Howlin' at the Moon
TTITLE17=Boquet Of Roses
EXTD=YEAR: 2004
EXTT0=
EXTT1=
EXTT2=
EXTT3=
EXTT4=
EXTT5=
EXTT6=
EXTT7=
EXTT8=
EXTT9=
EXTT10=
EXTT11=
EXTT12=
EXTT13=
EXTT14=
EXTT15=
EXTT16=
EXTT17=
PLAYORDER=
